<?xml version="1.0" encoding="utf-8"?>
<!-- Generator: Adobe Illustrator 26.5.0, SVG Export Plug-In . SVG Version: 6.00 Build 0)  -->
<svg version="1.0" id="Layer_1" xmlns="http://www.w3.org/2000/svg" xmlns:xlink="http://www.w3.org/1999/xlink" x="0px" y="0px"
	 viewBox="0 0 800 137" enable-background="new 0 0 800 137" xml:space="preserve">
<path d="M40.3,33h31.1c21.1,0,26.8,11.2,26.8,19.4s-4.3,11.9-4.3,11.9c12.8,1.6,15.8,12.8,15.8,19c0,11.3-9,22.1-21.5,22.1H40.3V33z
	 M75,61.3c5,0,8.6-2.3,8.6-7.6c0-4.4-3-7.8-8.6-7.8H55.2v15.5L75,61.3L75,61.3z M83.6,92.6c5.9,0,10.3-3.7,10.3-9.6
	c0-5.1-3.5-9-10.3-9H55.2v18.5h28.4V92.6z"/>
<path d="M125.1,68.4c0-23,14.4-38.6,37.7-38.6s37.7,15.5,37.7,38.6S186.1,107,162.8,107S125.1,91.4,125.1,68.4z M162.8,93.8
	c14.8,0.2,22.2-10,22.2-25.4s-7.3-25.2-22.2-25.4c-14.8-0.2-22.2,10-22.2,25.4S148,93.6,162.8,93.8z"/>
<path d="M221.5,78.3V33.1l14.9-0.1v45.2c0,9.6,7.5,15.9,16.8,15.9c9.5,0,16.8-6.5,16.8-15.9V33h14.9v45.3
	c0,17.4-12.9,28.7-31.7,28.7S221.5,95.7,221.5,78.3z"/>
<path d="M307.6,33h14.7v59.7h33.5v12.8h-48.2V33z"/>
<path d="M376.5,33h50.8v12.8h-36.1v15.5h29.6v12.8h-29.6v18.6h36.1v12.8h-50.8V33z"/>
<path d="M448.1,33h15.1l19.5,59.6L502.5,33h15.1l-23.8,72.4h-21.9L448.1,33z"/>
<path d="M542.1,33H564l23.8,72.4h-15.1l-5-15.1h-29.3l-4.9,15.1h-15.1L542.1,33z M563.5,77.6L553,45.9l-10.4,31.7H563.5z"/>
<path d="M606.5,33h32.9c1.5,0,4.4,0.1,6.5,0.4c13.9,2,20.1,11.4,20.1,23.5c0,9.9-4.1,17.9-13,21.6l14,26.9h-16.6l-12.8-24.6h-16.4
	v24.6h-14.7V33z M638.7,68.1c1.5,0,3.5-0.1,5-0.5c5.9-1.5,7.5-6.7,7.5-10.7c0-3.9-1.5-9.2-7.5-10.7c-1.5-0.4-3.5-0.5-5-0.5h-17.5V68
	L638.7,68.1L638.7,68.1z"/>
<path d="M688.8,33h31.6c1.2,0,5.7,0,9.3,0.4c18.8,2.1,29.3,17.4,29.3,35.8s-11.2,31.8-29.9,35.7c-3.6,0.4-7.5,0.5-8.7,0.5h-31.6
	L688.8,33L688.8,33z M720.4,92.6c1.9,0,5.7,0,8.4-0.5c10.2-1.9,14.6-12.5,14.6-22.8c0-10.9-4.8-21-14.6-22.8
	c-2.7-0.5-6.5-0.5-8.4-0.5h-16.6v46.7L720.4,92.6L720.4,92.6z"/>
</svg>
