<?xml version="1.0" encoding="utf-8"?>
<!-- Generator: Adobe Illustrator 26.5.0, SVG Export Plug-In . SVG Version: 6.00 Build 0)  -->
<svg version="1.0" id="Layer_1" xmlns="http://www.w3.org/2000/svg" xmlns:xlink="http://www.w3.org/1999/xlink" x="0px" y="0px"
	 viewBox="0 0 441.3 446.9" enable-background="new 0 0 441.3 446.9" xml:space="preserve">
<g>
	<g>
		<polygon fill="#FFFFFF" points="204.7,398.2 30.1,66.4 235.7,66.4 235.7,91.4 71.5,91.4 226.8,386.5 		"/>
	</g>
	<g>
		<path fill="#FFFFFF" stroke="#000000" stroke-width="25" stroke-miterlimit="10" d="M339.7,379"/>
	</g>
	<g>
		<path fill="#FFFFFF" stroke="#000000" stroke-width="25" stroke-miterlimit="10" d="M177.4,68.5"/>
	</g>
	<g>
		<polygon fill="#FFFFFF" points="295.2,404.8 58.3,404.8 58.3,223.1 137.9,223.1 137.9,248.1 83.3,248.1 83.3,379.8 295.2,379.8 		
			"/>
	</g>
	<g>
		<path fill="#FFFFFF" stroke="#000000" stroke-width="25" stroke-miterlimit="10" d="M323.6,406.7"/>
	</g>
	<g>
		
			<rect x="171.7" y="129.8" transform="matrix(0.4197 -0.9077 0.9077 0.4197 5.3035 292.8113)" fill="#FFFFFF" width="119.8" height="25"/>
	</g>
	<g>
		<path fill="#FFFFFF" d="M290.5,404.8v-25c36,0,65.3-29.3,65.3-65.3s-29.3-65.3-65.3-65.3h-62.8v-25h62.7
			c49.8,0,90.3,40.5,90.3,90.3S340.3,404.8,290.5,404.8z"/>
	</g>
	<g>
		<path fill="#FFFFFF" d="M236,247.1c-6.8,0-13.8-0.8-20.7-2.3l5.5-24.4c11.7,2.6,23.4,2.2,33.9-1.1c12.5-4,24.1-12.4,32.6-23.5
			c8.9-11.7,13.7-25.1,13.7-39c0-36-29.3-65.3-65.3-65.3v-25c49.8,0,90.3,40.5,90.3,90.3c0,38.1-26.8,74.4-63.6,86.3
			C254,245.7,245.1,247.1,236,247.1z"/>
	</g>
	<g>
		
			<rect x="208.4" y="53.9" transform="matrix(0.885 -0.4656 0.4656 0.885 -82.9868 129.644)" fill="#FFFFFF" width="25" height="357.9"/>
	</g>
</g>
</svg>
