<?xml version="1.0" encoding="utf-8"?>
<!-- Generator: Adobe Illustrator 26.5.0, SVG Export Plug-In . SVG Version: 6.00 Build 0)  -->
<svg version="1.0" id="Layer_1" xmlns="http://www.w3.org/2000/svg" xmlns:xlink="http://www.w3.org/1999/xlink" x="0px" y="0px"
	 viewBox="0 0 800 134" enable-background="new 0 0 800 134" xml:space="preserve">
<path fill="#FFFFFF" d="M40.3,32h31.1c21.1,0,26.8,11.2,26.8,19.4s-4.3,11.9-4.3,11.9c12.8,1.6,15.8,12.8,15.8,19
	c0,11.3-9,22.1-21.5,22.1H40.3V32z M75,60.3c5,0,8.6-2.3,8.6-7.6c0-4.4-3-7.8-8.6-7.8H55.2v15.5L75,60.3L75,60.3z M83.6,91.6
	c5.9,0,10.3-3.7,10.3-9.6c0-5.1-3.5-9-10.3-9H55.2v18.5h28.4V91.6z"/>
<path fill="#FFFFFF" d="M125.1,67.4c0-23,14.4-38.6,37.7-38.6s37.7,15.5,37.7,38.6S186.1,106,162.8,106S125.1,90.4,125.1,67.4z
	 M162.8,92.8c14.8,0.2,22.2-10,22.2-25.4s-7.3-25.2-22.2-25.4c-14.8-0.2-22.2,10-22.2,25.4S148,92.6,162.8,92.8z"/>
<path fill="#FFFFFF" d="M221.5,77.3V32.1l14.9-0.1v45.2c0,9.6,7.5,15.9,16.8,15.9c9.5,0,16.8-6.5,16.8-15.9V32h14.9v45.3
	c0,17.4-12.9,28.7-31.7,28.7S221.5,94.7,221.5,77.3z"/>
<path fill="#FFFFFF" d="M307.6,32h14.7v59.7h33.5v12.8h-48.2V32z"/>
<path fill="#FFFFFF" d="M376.5,32h50.8v12.8h-36.1v15.5h29.6v12.8h-29.6v18.6h36.1v12.8h-50.8V32z"/>
<path fill="#FFFFFF" d="M448.1,32h15.1l19.5,59.6L502.5,32h15.1l-23.8,72.4h-21.9L448.1,32z"/>
<path fill="#FFFFFF" d="M542.1,32H564l23.8,72.4h-15.1l-5-15.1h-29.3l-4.9,15.1h-15.1L542.1,32z M563.5,76.6L553,44.9l-10.4,31.7
	H563.5z"/>
<path fill="#FFFFFF" d="M606.5,32h32.9c1.5,0,4.4,0.1,6.5,0.4c13.9,2,20.1,11.4,20.1,23.5c0,9.9-4.1,17.9-13,21.6l14,26.9h-16.6
	l-12.8-24.6h-16.4v24.6h-14.7V32z M638.7,67.1c1.5,0,3.5-0.1,5-0.5c5.9-1.5,7.5-6.7,7.5-10.7c0-3.9-1.5-9.2-7.5-10.7
	c-1.5-0.4-3.5-0.5-5-0.5h-17.5V67L638.7,67.1L638.7,67.1z"/>
<path fill="#FFFFFF" d="M688.8,32h31.6c1.2,0,5.7,0,9.3,0.4c18.8,2.1,29.3,17.4,29.3,35.8s-11.2,31.8-29.9,35.7
	c-3.6,0.4-7.5,0.5-8.7,0.5h-31.6L688.8,32L688.8,32z M720.4,91.6c1.9,0,5.7,0,8.4-0.5c10.2-1.9,14.6-12.5,14.6-22.8
	c0-10.9-4.8-21-14.6-22.8c-2.7-0.5-6.5-0.5-8.4-0.5h-16.6v46.7L720.4,91.6L720.4,91.6z"/>
</svg>
