<?xml version="1.0" encoding="utf-8"?>
<!-- Generator: Adobe Illustrator 26.5.0, SVG Export Plug-In . SVG Version: 6.00 Build 0)  -->
<svg version="1.0" id="Layer_1" xmlns="http://www.w3.org/2000/svg" xmlns:xlink="http://www.w3.org/1999/xlink" x="0px" y="0px"
	 viewBox="0 0 401.5 398.1" enable-background="new 0 0 401.5 398.1" xml:space="preserve">
<g>
	<g>
		<polygon points="198.2,365.8 23.6,34 229.2,34 229.2,59 65,59 220.3,354.1 		"/>
	</g>
	<g>
		<path fill="none" stroke="#000000" stroke-width="25" stroke-miterlimit="10" d="M333.2,346.6"/>
	</g>
	<g>
		<path fill="none" stroke="#000000" stroke-width="25" stroke-miterlimit="10" d="M170.9,36.1"/>
	</g>
	<g>
		<polygon points="288.7,372.4 51.8,372.4 51.8,190.7 131.4,190.7 131.4,215.7 76.8,215.7 76.8,347.4 288.7,347.4 		"/>
	</g>
	<g>
		<path fill="none" stroke="#000000" stroke-width="25" stroke-miterlimit="10" d="M317.1,374.3"/>
	</g>
	<g>
		<rect x="165.3" y="97.3" transform="matrix(0.4197 -0.9077 0.9077 0.4197 31.0343 268.0697)" width="119.8" height="25"/>
	</g>
	<g>
		<path d="M284,372.4v-25c36,0,65.3-29.3,65.3-65.3S320,216.8,284,216.8h-62.8v-25h62.7c49.8,0,90.3,40.5,90.3,90.3
			S333.8,372.4,284,372.4z"/>
	</g>
	<g>
		<path d="M229.5,214.7c-6.8,0-13.8-0.8-20.7-2.3l5.5-24.4c11.7,2.6,23.4,2.2,33.9-1.1c12.5-4,24.1-12.4,32.6-23.5
			c8.9-11.7,13.7-25.1,13.7-39c0-36-29.3-65.3-65.3-65.3v-25c49.8,0,90.3,40.5,90.3,90.3c0,38.1-26.8,74.4-63.6,86.3
			C247.5,213.3,238.6,214.7,229.5,214.7z"/>
	</g>
	<g>
		<rect x="202" y="21.4" transform="matrix(0.885 -0.4656 0.4656 0.885 -68.6035 122.8883)" width="25" height="357.9"/>
	</g>
</g>
</svg>
